<!DOCTYPE svg PUBLIC "-//W3C//DTD SVG 20010904//EN" "http://www.w3.org/TR/2001/REC-SVG-20010904/DTD/svg10.dtd">
<svg version="1.0" xmlns="http://www.w3.org/2000/svg" width="924px" height="658px" viewBox="0 0 9240 6580" preserveAspectRatio="xMidYMid meet">
<g id="layer101" fill="#639fd0" stroke="none">
 <path d="M0 3290 l0 -3290 4620 0 4620 0 0 3290 0 3290 -4620 0 -4620 0 0 -3290z"/>
 </g>
<g id="layer102" fill="#7fb3d9" stroke="none">
 <path d="M0 3156 l0 -3156 4620 0 4620 0 0 2508 0 2507 -116 -125 c-233 -249 -514 -518 -696 -665 -119 -96 -349 -248 -528 -350 -804 -460 -1700 -655 -2560 -560 -849 94 -1665 456 -2450 1086 -241 193 -327 274 -765 714 -282 283 -459 453 -540 517 -435 345 -851 546 -1329 643 -70 14 -157 29 -192 32 l-64 6 0 -3157z"/>
 </g>
<g id="layer103" fill="#a8d0e6" stroke="none">
 <path d="M316 4760 c-98 -11 -172 -26 -253 -52 l-63 -19 0 -2344 0 -2345 4620 0 4620 0 0 1055 c0 862 -2 1055 -13 1055 -7 0 -61 -9 -120 -20 -542 -99 -1219 -125 -1802 -69 -1297 124 -2539 546 -3750 1272 -164 98 -477 305 -763 505 -753 526 -1443 852 -1995 942 -140 23 -370 32 -481 20z"/>
 </g>

</svg>