<!DOCTYPE svg PUBLIC "-//W3C//DTD SVG 20010904//EN" "http://www.w3.org/TR/2001/REC-SVG-20010904/DTD/svg10.dtd">
<svg version="1.0" xmlns="http://www.w3.org/2000/svg" width="924px" height="652px" viewBox="0 0 9240 6520" preserveAspectRatio="xMidYMid meet">
<g id="layer101" fill="#7fb3d9" stroke="none">
 <path d="M0 3260 l0 -3260 4620 0 4620 0 0 3260 0 3260 -4620 0 -4620 0 0 -3260z"/>
 </g>
<g id="layer102" fill="#a8d0e6" stroke="none">
 <path d="M0 2495 l0 -2495 4620 0 4620 0 0 1686 c0 1513 -2 1686 -15 1680 -23 -8 -263 -52 -390 -70 -699 -101 -1500 -81 -2335 59 -710 119 -1448 321 -2210 605 -222 82 -618 243 -761 308 -346 157 -429 192 -460 192 -52 0 -735 66 -1039 101 -974 110 -1552 229 -1947 398 -40 17 -74 31 -77 31 -4 0 -6 -1123 -6 -2495z"/>
 </g>

</svg>